<?xml version="1.0" encoding="UTF-8" standalone="no"?>
<!-- Created with Inkscape (http://www.inkscape.org/) -->

<svg
   width="210mm"
   height="297mm"
   viewBox="0 0 210 297"
   version="1.1"
   id="svg5"
   sodipodi:docname="graphic4.svg"
   inkscape:version="1.1.1 (3bf5ae0d25, 2021-09-20)"
   xmlns:inkscape="http://www.inkscape.org/namespaces/inkscape"
   xmlns:sodipodi="http://sodipodi.sourceforge.net/DTD/sodipodi-0.dtd"
   xmlns="http://www.w3.org/2000/svg"
   xmlns:svg="http://www.w3.org/2000/svg">
  <sodipodi:namedview
     id="namedview7"
     pagecolor="#ffffff"
     bordercolor="#666666"
     borderopacity="1.0"
     inkscape:pageshadow="2"
     inkscape:pageopacity="0.0"
     inkscape:pagecheckerboard="0"
     inkscape:document-units="mm"
     showgrid="false"
     showguides="false"
     inkscape:zoom="1.0482005"
     inkscape:cx="361.09504"
     inkscape:cy="429.78419"
     inkscape:window-width="1920"
     inkscape:window-height="1017"
     inkscape:window-x="-8"
     inkscape:window-y="-8"
     inkscape:window-maximized="1"
     inkscape:current-layer="layer1" />
  <defs
     id="defs2">
    <rect
       x="191.58389"
       y="329.20048"
       width="233.40854"
       height="259.043"
       id="rect2498" />
    <rect
       x="191.58389"
       y="329.20047"
       width="233.40854"
       height="259.043"
       id="rect2498-0" />
    <rect
       x="191.58389"
       y="329.20047"
       width="233.40854"
       height="259.043"
       id="rect2498-01" />
  </defs>
  <g
     inkscape:groupmode="layer"
     id="layer2"
     inkscape:label="Capa 2">
    <rect
       style="fill:#000000;fill-opacity:1;stroke:#000000;stroke-width:0"
       id="rect10729"
       width="134.28569"
       height="218.34045"
       x="37.862511"
       y="10.096668" />
  </g>
  <g
     inkscape:label="Capa 1"
     inkscape:groupmode="layer"
     id="layer1">
    <text
       xml:space="preserve"
       transform="matrix(1.5817862,0,0,2.065602,-252.46035,-602.91115)"
       id="text2496"
       style="font-style:normal;font-variant:normal;font-weight:normal;font-stretch:normal;font-size:40px;line-height:1.25;font-family:Ilyas;-inkscape-font-specification:'Ilyas, Normal';font-variant-ligatures:normal;font-variant-caps:normal;font-variant-numeric:normal;font-variant-east-asian:normal;white-space:pre;shape-inside:url(#rect2498);fill:#7c69f0;fill-opacity:1;stroke:none"><tspan
         x="191.58398"
         y="366.20117"
         id="tspan42727">KEFRI</tspan></text>
    <path
       id="text2496-2"
       style="font-style:normal;font-variant:normal;font-weight:normal;font-stretch:normal;font-size:40px;line-height:1.25;font-family:Ilyas;-inkscape-font-specification:'Ilyas, Normal';font-variant-ligatures:normal;font-variant-caps:normal;font-variant-numeric:normal;font-variant-east-asian:normal;white-space:pre;shape-inside:url(#rect2498-01);fill:#7c69f0;fill-opacity:1;stroke:none;stroke-width:1.79601"
       d="m 50.7633,53.471665 c 0.822529,0 1.518542,1.712826 1.581814,4.159908 v 29.310671 c 0.07792,0.06508 0.131929,0.14988 0.160197,0.292838 0.353812,-0.0091 0.707531,-0.01562 1.0604,0.02296 0.111308,0.01178 0.09686,0.01233 0.161232,0.01938 0.124883,-0.04983 0.215236,-0.06251 1.37976,-0.284167 0.447571,-0.0099 0.908886,-0.0498 1.355473,-0.01327 0.08311,0.0068 0.165775,0.01808 0.248563,0.02806 V 57.95808 c 0,-2.69179 0.759061,-4.486415 1.644862,-4.486415 z m 1.742011,33.763417 c -0.05342,0.0013 -0.106801,0.0016 -0.160197,0.0031 v 0.742807 c 0.03204,2.62e-4 0.06407,1.96e-4 0.09612,5.22e-4 0.05461,-0.0085 0.113432,-0.01627 0.17105,-0.02552 -0.04732,-0.333182 -0.07407,-0.554489 -0.106971,-0.720866 z M 69.934222,53.471665 c 0.885799,0 0.822915,2.202192 -0.252698,4.812413 l -11.285101,28.4592 c 1.028049,0.0047 2.055704,0.0094 3.083534,-0.01581 0.470029,5.22e-4 0.939287,0.01826 1.4087,0.03213 l -1.685685,-4.494066 9.617501,-24.307458 c 1.075614,-2.447081 2.530753,-4.486415 3.353282,-4.486415 z m 31.066298,0 c 0.82253,0 1.51855,1.631199 1.58182,4.078281 v 28.452059 c 0.37451,-0.0024 0.74896,-0.01003 1.12344,-0.0087 0.99444,0.0055 1.98883,0.0026 2.98328,0.0021 0.12851,5.6e-5 0.25701,-2e-5 0.38551,0 v -0.793309 h 4.80849 c 1.07261,0 1.84205,0.326126 2.39417,0.793309 h 1.4025 v -5.605722 c 0,0 -2.7e-4,4.078282 -3.79667,4.078282 h -4.80849 V 54.205797 h 9.8702 c 7.59257,0 7.65586,7.912192 7.65586,7.912192 v -8.646324 z m -24.359213,0.08163 c 0.759256,0 1.391935,1.631199 1.455208,4.078281 v 28.547973 c 0.01286,-2.17e-4 0.01857,-7.84e-4 0.03152,-0.0011 0.300879,0.0065 0.601906,0.01295 0.902788,0.01938 1.036531,-0.112707 2.074383,-0.171821 3.115053,-0.189271 v -1.050944 h 4.492233 c 1.154227,0 1.930951,0.442384 2.455665,1.03768 h 0.983403 0.104386 v -5.850603 c 0,0 -2.54e-4,4.160418 -3.543454,4.160418 H 82.145878 V 54.205797 h 9.237681 c 7.023129,0 7.022825,7.993818 7.022825,7.993818 v -8.646323 z m 49.414533,0 c 0.82253,0 1.4555,1.631199 1.51877,4.078281 v 28.734691 c 0.20157,0.04957 0.37474,0.09526 0.69505,0.161726 0.29949,0.148647 0.59829,0.298959 0.89865,0.445887 -0.25968,-0.129175 -0.51961,-0.258046 -0.77928,-0.38722 -0.002,-0.0088 -0.0142,-0.02586 -0.005,-0.02652 0.71304,-0.05218 1.43656,-0.06203 2.15129,-0.08163 0.4894,0.0082 0.9788,0.0065 1.46813,0.0092 V 54.2874 h 4.17597 c 11.19905,0 10.31358,18.026628 10.31358,19.984293 0,1.549818 4e-5,6.362741 -1.4552,10.60435 -0.21508,0.658507 -0.50185,1.284339 -0.83458,1.865172 0.13333,-5.22e-4 0.26665,0.0011 0.39998,0.0011 0.81442,-5.22e-4 1.62884,0.0013 2.44326,0.0011 0.5706,-1.99e-4 1.14132,-5.24e-4 1.71204,-5.24e-4 1.6602,-3.292568 2.47943,-7.681582 2.47943,-12.552678 0.0633,-11.338146 -2.97357,-20.636799 -11.3254,-20.636799 z m 28.34556,0 c 0.75925,0 1.39193,1.631199 1.4552,4.078281 v 29.660136 c 0.0983,-0.01107 0.19648,-0.02338 0.29508,-0.0301 0.21617,-0.01472 0.43268,-0.02272 0.64905,-0.03417 0.833,-0.01374 1.32885,0.05019 1.68982,0.278553 0.33886,-0.01614 0.67332,-0.02116 1.02268,0.0062 0.10721,0.02267 0.28115,-0.0046 0.39274,0.01479 V 58.039707 c 0,-2.69179 0.69595,-4.486415 1.45521,-4.486415 z m -19.67735,28.222994 c 0.48991,0.140356 1.91614,0.893049 3.07061,4.734357 0.60802,0.01306 1.18142,0.07176 1.82831,0.277531 0.0966,-0.0059 0.19434,-0.0034 0.29094,-0.0096 0.54755,-0.0358 1.0881,-0.05339 1.63659,-0.04234 0.0703,0.0016 0.14057,-5.22e-4 0.21084,5.22e-4 -1.49933,-2.933741 -3.64207,-4.421639 -7.03729,-4.96036 z m -12.1481,0.08163 c 0.23922,1.589481 0.59343,2.958791 1.02164,4.142559 0.20362,-0.0039 0.40339,0.0037 0.60152,0.01531 -1.00986,-1.610421 -1.44216,-3.271166 -1.62316,-4.157868 z M 53.505767,87.35803 c -0.01569,0.0028 -0.032,0.0021 -0.04754,0.0057 -0.110331,0.02547 -0.421878,0.162843 -0.314708,0.126522 0.307927,-0.104362 0.260688,-0.09201 0.362251,-0.132133 z M 155.8566,87.474349 v 0.0026 c 0.005,0.0011 0.008,0.0042 0.0129,0.0052 0.005,0.0011 -0.016,-0.0082 -0.0129,-0.0077 z" />
    <path
       id="text2496-3"
       style="font-style:normal;font-variant:normal;font-weight:normal;font-stretch:normal;font-size:40px;line-height:1.25;font-family:Ilyas;-inkscape-font-specification:'Ilyas, Normal';font-variant-ligatures:normal;font-variant-caps:normal;font-variant-numeric:normal;font-variant-east-asian:normal;white-space:pre;shape-inside:url(#rect2498-0);fill:#7c69f0;fill-opacity:1;stroke:none;stroke-width:6.83179"
       transform="scale(0.26458333)"
       d="m 393.02734,554.78711 c -1.1106,0.006 -2.22132,0.0306 -3.33203,0.0508 -1.6e-4,0.0176 10e-5,0.0352 0,0.0527 0.48805,-0.0106 0.977,-0.0198 1.46485,-0.0312 1.96136,-0.0416 2.35608,-0.0414 3.60546,-0.0703 -0.57938,0.002 -1.15889,-0.005 -1.73828,-0.002 z m -195.3457,21.90039 v 119.33594 c -0.23914,9.3684 -2.86974,15.61523 -5.97852,15.61523 h 28.69532 c -3.34791,0 -6.2168,-6.87032 -6.2168,-16.86328 v -70.88867 l 8.36914,-21.85938 34.91406,93.9961 c 3.10877,9.3684 2.87049,15.61523 -0.23828,15.61523 h 28.69532 c -3.10878,0 -8.60937,-6.87032 -12.43555,-16.86328 L 231.19336,580.56836 c -0.57399,0.0299 -1.14506,0.10074 -1.7207,0.10156 -0.75011,10e-4 -1.49897,-0.0503 -2.24805,-0.0918 l -13.04297,33.31641 v -36.0332 c -0.93383,0.15811 -2.597,0.38556 -3.39453,0.43359 -2.71153,0.16328 -7.00231,2.74393 -8.14453,0.2793 -0.17784,-0.38374 -0.34601,-0.73531 -0.52149,-1.11133 -0.3531,-0.16017 -0.63684,-0.36805 -0.86718,-0.61328 -1.18976,-0.0404 -2.37911,-0.0914 -3.57227,-0.16211 z m 4.43945,0.77539 c 1.0304,0.4674 2.60082,0.55972 4.82227,0.20313 -0.31551,-0.0783 -0.40583,-0.19044 -0.32617,-0.34571 -0.84678,-0.11176 -1.69335,-0.21701 -2.54297,-0.34179 -0.74377,-0.0643 -1.4862,-0.0721 -2.22852,-0.10157 0.093,0.1991 0.18178,0.38534 0.27539,0.58594 z m 4.82227,0.20313 c 0.72828,0.18068 2.55925,0.20693 5.75976,0.29882 0.29681,-0.039 0.59235,-0.0894 0.88868,-0.13476 -0.10347,0.001 0.0839,0.01 -1.25586,-0.0137 -1.502,-0.0264 -2.98494,-0.15611 -4.46485,-0.32813 -0.31382,0.0623 -0.63639,0.13097 -0.92773,0.17774 z m 180.61133,0.0449 v 118.3125 c -0.23914,9.3684 -2.86975,15.61523 -5.97852,15.61523 h 28.69727 c -3.10877,0 -5.74024,-6.87032 -5.74024,-16.86328 V 591.72266 h 18.17383 c 14.34817,0 14.34961,15.61328 14.34961,15.61328 v -28.22266 c -0.35745,-0.004 -0.71483,-8.6e-4 -1.07226,-0.006 -1.43645,4.44423 -4.85317,9.80469 -13.27735,9.80469 H 404.5332 v -9.65039 c -4.076,-0.059 -8.15319,-0.22545 -12.22851,-0.21875 -0.16143,0.006 -0.24229,0.01 -0.38672,0.0156 -0.0958,0.0123 -0.19127,0.0271 -0.28711,0.0391 -0.17427,0.0227 -0.50845,0.18223 -0.52734,0.008 -6.1e-4,-0.006 -9.6e-4,-0.0101 -0.002,-0.0156 -1.43864,0.0484 -1.67488,-0.084 -1.41601,-1.32031 -0.71019,-0.0243 -1.42067,-0.0374 -2.13086,-0.0586 z m -92.54492,1.59765 v 116.71485 c -0.23914,9.3684 -2.63037,15.61523 -5.5,15.61523 h 20.80468 61.45703 v -33.10156 c 0,0 10e-4,30.29102 -26.54296,30.29101 H 310.31445 V 590.78516 h 16.97852 c 13.39162,0 13.39062,15.92773 13.39062,15.92773 v -23.70312 c -1.03508,-0.04 -2.06959,-0.0393 -3.10351,-0.0645 -1.94599,2.93413 -5.09174,5.3418 -10.28711,5.3418 h -16.97852 v -7.44336 c -3.67402,-0.42187 -7.34528,-0.86959 -11.02734,-1.21094 -0.50879,-8.1e-4 -1.07591,-0.007 -1.8418,-0.0215 -0.0955,0.0223 -0.17296,0.0235 -0.22265,-0.004 -0.0105,-2.1e-4 -0.0128,2.2e-4 -0.0234,0 -1.10988,-0.0229 -1.76235,-0.10509 -2.18945,-0.29883 z m 272.73046,2.14844 c -0.96289,0.067 -1.92599,0.13418 -2.88867,0.20117 -0.36793,-0.01 -0.7354,-0.0362 -1.10351,-0.0547 -0.0893,0.15334 -0.10768,0.22196 -0.0293,0 -0.35051,-0.0171 -0.70116,-0.028 -1.05078,-0.004 -1.40153,0.097 -1.87845,0.46299 -3.20117,0.66406 -3.24004,0.49285 -4.47227,0.56331 -7.50391,0.83203 -0.62391,0.0337 -1.24746,0.004 -1.87109,0.0117 -0.58813,2.47077 -1.25647,4.93931 -2.07813,7.36524 -1.91309,5.93332 -5.25976,11.24287 -9.08594,14.99023 -4.03337,-11.63143 -9.54706,-18.87393 -17.82617,-23.06055 -2.37137,0.0833 -4.74281,0.13001 -7.11523,0.13868 2.80016,3.48987 6.1123,9.94494 8.67969,22.29687 l 1.91406,8.11914 c -8.6089,1.87368 -18.17577,0.93835 -25.82813,-0.62305 v -29.91601 c -0.13864,-10e-4 -0.27737,-0.003 -0.41601,-0.004 -0.0951,0.007 -0.19001,0.0189 -0.28516,0.0254 -0.33211,0.0227 -0.95912,0.31897 -0.99805,-0.0117 -9.9e-4,-0.008 -9e-4,-0.017 -0.002,-0.0254 -1.69207,0.0221 -2.24719,0.006 -2.16211,-0.79492 -3.89133,-0.0491 -7.78236,-0.1039 -11.67383,-0.14062 -0.40041,-0.004 -0.80076,0.004 -1.20117,0 v 25.55664 c -12.14905,-6.40169 -16.53023,-18.67963 -18.22265,-25.54492 -0.0632,5.7e-4 -0.1263,-5.9e-4 -0.18946,0 3.38002,19.22361 11.09054,29.82106 18.41211,34.60156 v 79.94336 c -0.23913,9.3684 -2.63146,15.61523 -5.74023,15.61523 h 28.45703 c -3.34791,0 -5.97852,-6.87054 -5.97852,-17.17578 v -71.82422 c 11.2394,3.1228 20.56554,3.12195 28.45703,1.56055 l 17.21875,71.82422 c 2.15223,9.68068 1.19471,15.61523 -1.91406,15.61523 h 28.93555 c -3.34791,0 -7.89099,-6.55804 -10.52149,-16.86328 l -18.17382,-76.19727 c 8.6089,-4.68415 12.67382,-10.61718 12.67382,-10.61718 5.65062,-6.72305 9.66753,-15.89274 12.3125,-26.50391 z m 21.16602,0.0527 v 114.51367 c -0.23914,9.3684 -2.63037,15.61523 -5.5,15.61523 h 26.30469 c -2.86964,0 -5.5,-6.87032 -5.5,-16.86328 v -113.1543 c -1.0104,0.0216 -2.12815,0.004 -4.31641,0.0391 -3.66239,-0.0778 -7.32555,-0.11664 -10.98828,-0.15039 z" />
    <path
       id="text2496-3-3"
       style="font-style:normal;font-variant:normal;font-weight:normal;font-stretch:normal;font-size:40px;line-height:1.25;font-family:Ilyas;-inkscape-font-specification:'Ilyas, Normal';font-variant-ligatures:normal;font-variant-caps:normal;font-variant-numeric:normal;font-variant-east-asian:normal;white-space:pre;shape-inside:url(#rect2498-0);fill:#7c69f0;fill-opacity:1;stroke:none;stroke-width:1.80758"
       d="m 103.86882,170.24135 c -0.29384,0.002 -0.58772,0.008 -0.8816,0.0134 -4e-5,0.005 3e-5,0.009 0,0.0139 0.12913,-0.003 0.2585,-0.005 0.38758,-0.008 0.51894,-0.011 0.62338,-0.011 0.95394,-0.0186 -0.15329,5.3e-4 -0.30662,-0.001 -0.45992,-5.3e-4 z m 55.87566,17.13952 c -0.2935,0.0231 -0.58591,0.0556 -0.87953,0.0775 0.0119,0.31426 0.022,0.62862 0.0377,0.94258 -0.0911,-2.7e-4 -0.18225,2.6e-4 -0.27337,0 -9e-5,7.9e-4 9e-5,0.002 0,0.003 -2.2e-4,0.002 -0.55367,0.001 -0.64027,0.001 -0.51503,-2.6e-4 -1.03009,-7.9e-4 -1.54512,-0.001 -0.34757,-1.7e-4 -0.46451,9e-5 -0.74879,0 v 19.20658 c -0.0633,2.47872 -0.69595,4.13153 -1.45521,4.13153 h 6.95978 c -0.75926,0 -1.45521,-1.81777 -1.45521,-4.46174 z m -15.952,1.03302 c -0.69297,-8e-4 -1.38598,0.005 -2.07894,0.003 -0.64744,0.0293 -1.295,0.0567 -1.942,0.0946 -1.51264,0.0884 -3.0239,0.19963 -4.53564,0.30334 1.52745,0.13034 2.89971,0.0367 4.13515,-0.20774 l 4.55579,19.00349 c 0.56944,2.56135 0.3161,4.13153 -0.50643,4.13153 h 7.65587 c -0.88581,0 -2.08782,-1.73514 -2.78381,-4.46174 z m -91.608876,0.49299 v 18.70325 c -0.06327,2.47872 -0.759285,4.13153 -1.581816,4.13153 h 7.5923 c -0.885798,0 -1.644859,-1.81777 -1.644859,-4.46174 v -18.36064 c -1.455189,-0.009 -2.910421,-0.008 -4.365625,-0.0124 z m 29.800764,0.009 c -0.924343,0.0451 -1.848403,0.0994 -2.773473,0.11576 -0.425254,0.007 -0.85062,7.9e-4 -1.275892,0.005 v 18.57303 c -0.06327,2.47872 -0.695952,4.13153 -1.455209,4.13153 h 5.504574 16.260506 v -8.75813 c 0,0 2.62e-4,8.0145 -7.022827,8.0145 h -9.237679 z m -20.9088,0.0486 6.925675,18.64537 c 0.822528,2.47872 0.759489,4.13153 -0.06305,4.13153 h 7.5923 c -0.822531,0 -2.277895,-1.81777 -3.290239,-4.46174 l -6.765989,-18.27043 c -1.466225,-0.0168 -2.932461,-0.0316 -4.398697,-0.0444 z m 70.766222,0.077 c -0.12605,0.009 -0.25221,0.0164 -0.37827,0.0253 -1.35071,0.0957 -2.70033,0.20582 -4.0504,0.30954 v 18.23351 c -0.0633,2.47873 -0.69624,4.13153 -1.51877,4.13153 h 7.52926 c -0.88581,0 -1.58182,-1.81783 -1.58182,-4.54442 z m -29.42094,0.73173 v 17.83664 c -0.0633,2.47872 -0.75929,4.13153 -1.58181,4.13153 h 7.59281 c -0.82252,0 -1.51877,-1.81777 -1.51877,-4.46174 v -17.43305 c -1.49743,-0.0221 -2.99528,-0.0296 -4.49223,-0.0734 z" />
    <rect
       style="fill:#000000;stroke:#000000;stroke-width:0;fill-opacity:1"
       id="rect9132"
       width="109.29643"
       height="3.2814176"
       x="51.672226"
       y="152.58189" />
    <rect
       style="fill:#000000;stroke:#000000;stroke-width:0;fill-opacity:1"
       id="rect9132-5"
       width="111.06335"
       height="3.2814176"
       x="50.721451"
       y="188.28773" />
    <rect
       style="fill:#000000;stroke:#000000;stroke-width:0;fill-opacity:1"
       id="rect9132-5-4"
       width="131.00427"
       height="3.2814176"
       x="40.639095"
       y="84.938225" />
    <path
       id="text2496-2-6"
       style="font-style:normal;font-variant:normal;font-weight:normal;font-stretch:normal;font-size:40px;line-height:1.25;font-family:Ilyas;-inkscape-font-specification:'Ilyas, Normal';font-variant-ligatures:normal;font-variant-caps:normal;font-variant-numeric:normal;font-variant-east-asian:normal;white-space:pre;shape-inside:url(#rect2498-01);fill:#7c69f0;fill-opacity:1;stroke:none;stroke-width:1.86196"
       d="m 50.703982,26.336115 c 0.822529,0 1.518544,1.84093 1.581817,4.471031 v 21.842472 c 1.455224,-0.004 2.910469,-0.0092 4.365625,0 V 31.158074 c 0,-2.893111 0.75906,-4.821959 1.644861,-4.821959 z m 19.170925,0 c 0.885798,0 0.822915,2.366896 -0.252698,5.172337 l -7.750432,21.006826 c 0.195247,0 0.389591,2e-6 0.595312,0 0.144,2e-6 0.28801,0 0.432015,0 l 7.862051,-21.356657 c 1.075616,-2.6301 2.530756,-4.821957 3.353284,-4.821957 z m 31.066323,0 c 0.82252,0 1.51853,1.753199 1.5818,4.383299 v 21.260153 c 0.22824,0 0.4565,4.1e-5 0.68472,0 1.26922,-6e-5 2.53831,-9e-6 3.80751,0 V 27.125153 h 9.8702 c 7.59257,0 7.65587,8.503951 7.65587,8.503951 v -9.292989 z m -24.359241,0.08773 c 0.759256,0 1.391936,1.753198 1.455209,4.3833 v 21.297439 c 0.173833,-0.0072 0.347564,-0.0162 0.521415,-0.02302 0.693391,-0.0032 1.387096,-0.01134 2.080493,-0.0099 0.470504,0.0012 0.940795,0.02114 1.411283,0.01699 0.01207,-1.07e-4 0.02411,-8.43e-4 0.03617,-0.0012 V 27.125153 h 9.237679 c 7.023129,0 7.022827,8.591683 7.022827,8.591683 v -9.29299 z m 49.414541,0 c 0.82253,0 1.45551,1.753198 1.51878,4.3833 v 21.03863 c 0.4033,-0.02765 0.80897,0.0253 1.21232,0 1.23849,-0.07769 -0.0927,-0.01803 0.55398,-0.09925 0.59865,-0.07516 0.59591,-0.06322 1.10897,-0.06799 0.51758,0.02279 1.03559,0.009 1.55339,0.0137 V 27.212873 h 4.17598 c 11.19905,0 10.31358,19.374852 10.31358,21.478932 0,0.583429 -0.003,1.613502 -0.0656,2.880346 0.16572,5.61e-4 0.33148,0.0012 0.49713,0.006 0.6428,-3.4e-5 1.28576,-6.5e-5 1.92856,0 0.76412,5e-5 1.52825,1.9e-5 2.29237,0 0.0615,-0.969043 0.0925,-1.961521 0.0925,-2.974108 0.0633,-12.186132 -2.97358,-22.180238 -11.32541,-22.180238 z m 28.34556,0 c 0.75925,0 1.39194,1.753198 1.45521,4.3833 v 20.544589 c 0.2272,-0.01457 0.45425,-0.03227 0.68161,-0.04167 0.15236,-0.0064 0.30486,0.003 0.45734,0.0043 0.37364,0.0025 0.75702,0.01842 1.13171,0.0022 0.18914,-0.0082 0.34891,-0.0489 0.54415,-0.03893 0.17353,0.0089 0.34525,0.04276 0.5178,0.06415 0.0642,0.03997 0.21368,0.116786 0.38964,0.218779 0.3326,-0.01588 -0.29717,-0.016 0.15865,-0.07786 0.0849,-0.01153 0.10341,-0.0084 0.16847,-0.0159 V 31.245805 c 0,-2.893111 0.69594,-4.821959 1.4552,-4.821959 z" />
    <rect
       style="fill:#000000;fill-opacity:1;stroke:#000000;stroke-width:0"
       id="rect9132-5-4-5"
       width="131.76152"
       height="3.2814176"
       x="39.191498"
       y="50.27293" />
  </g>
</svg>
