<?xml version="1.0" encoding="UTF-8" standalone="no"?>
<!-- Created with Inkscape (http://www.inkscape.org/) -->

<svg
   width="3.5in"
   height="2in"
   viewBox="0 0 88.9 50.8"
   version="1.1"
   id="svg5"
   inkscape:version="1.1.1 (3bf5ae0d25, 2021-09-20)"
   sodipodi:docname="nube1.svg"
   xmlns:inkscape="http://www.inkscape.org/namespaces/inkscape"
   xmlns:sodipodi="http://sodipodi.sourceforge.net/DTD/sodipodi-0.dtd"
   xmlns="http://www.w3.org/2000/svg"
   xmlns:svg="http://www.w3.org/2000/svg">
  <sodipodi:namedview
     id="namedview7"
     pagecolor="#ffffff"
     bordercolor="#666666"
     borderopacity="1.0"
     inkscape:pageshadow="2"
     inkscape:pageopacity="0.0"
     inkscape:pagecheckerboard="0"
     inkscape:document-units="mm"
     showgrid="false"
     units="in"
     inkscape:zoom="2.9647587"
     inkscape:cx="243.34505"
     inkscape:cy="75.766917"
     inkscape:window-width="1920"
     inkscape:window-height="1017"
     inkscape:window-x="-8"
     inkscape:window-y="-8"
     inkscape:window-maximized="1"
     inkscape:current-layer="layer1" />
  <defs
     id="defs2" />
  <g
     inkscape:label="Capa 1"
     inkscape:groupmode="layer"
     id="layer1">
    <path
       d="M 39.04859,0.77958163 C 31.831119,2.6361144 26.091507,9.4667651 26.057136,16.157291 c 0,1.226011 -0.06868,1.331105 -0.756115,1.085897 -1.78718,-0.595491 -7.389317,-0.595491 -9.417085,0 -5.9114573,1.751446 -10.5168917,6.340241 -11.994761,11.874818 -0.7904766,2.942429 -0.5842695,7.601286 0.4811661,10.403601 2.0621388,5.569608 7.2518429,9.738049 13.4382499,10.823946 1.580972,0.280229 9.726414,0.350292 27.323303,0.280229 24.779998,-0.140114 25.12368,-0.140114 27.357665,-0.91075 C 80.085092,47.122894 84.999847,40.012014 84.346835,32.585873 83.659462,25.08967 79.088389,19.48504 71.802176,17.208156 c -2.0965,-0.630521 -7.045626,-0.630521 -9.176497,0.03505 -2.233985,0.700581 -2.199614,0.700581 -2.199614,-0.59549 0,-1.891564 -1.065435,-5.604629 -2.130871,-7.566255 C 56.336159,5.5085113 52.452469,2.3559048 48.500047,1.0948621 46.059855,0.3242261 41.385681,0.14908019 39.04859,0.77960149 Z"
       id="path47"
       style="fill:#e6e6e6;stroke:none;stroke-width:0.0346974" />
  </g>
</svg>
